<svg width="1200" height="560" viewBox="0 0 1200 560" fill="none" xmlns="http://www.w3.org/2000/svg">
<path d="M627.688 280C627.688 273.644 622.042 269.091 615.686 269.091H574.163C567.385 269.091 561.89 274.586 561.89 281.364V281.364C561.89 288.142 567.385 293.636 574.163 293.636H598.901C596.502 307.102 584.851 315.455 570.115 315.455C551.266 315.455 537.216 299.602 537.216 280C537.216 260.398 550.924 244.545 570.115 244.545C579.672 244.545 586.359 247.852 591.278 252.42C595.573 256.409 601.398 258.908 607.017 257.239V257.239C614.913 254.893 618.794 245.824 613.39 239.608C602.915 227.559 588.073 220 570.115 220C536.873 220 509.8 246.932 509.8 280C509.8 313.068 536.873 340 570.115 340C603.356 340 627.688 313.068 627.688 280V280Z" fill="white"/>
<path d="M700.331 220C666.233 220 638.646 246.932 638.646 280C638.646 313.068 666.233 340 700.331 340C734.43 340 762.017 313.068 762.017 280C762.017 246.932 734.43 220 700.331 220ZM700.331 315.455C681.483 315.455 666.062 299.602 666.062 280C666.062 260.398 681.483 244.545 700.331 244.545C719.18 244.545 734.601 260.398 734.601 280C734.601 299.602 719.18 315.455 700.331 315.455Z" fill="white"/>
<path d="M851.009 277.102C859.063 273.352 864.888 262.443 864.888 252.727C864.888 231.25 847.411 222.727 821.023 222.727H784.28C780.347 222.727 777.158 225.916 777.158 229.849V330.151C777.158 334.084 780.347 337.273 784.28 337.273H830.961C855.636 337.273 870.372 322.614 870.372 302.841C870.372 291.42 864.374 281.364 851.009 277.102ZM804.574 247.273H821.023C831.476 247.273 837.473 249.659 837.473 256.648C837.473 263.295 831.476 266.364 821.023 266.364H804.574V247.273ZM823.765 312.727H804.574V290.909H823.765C835.417 290.909 842.956 294.148 842.956 301.648C842.956 309.489 835.417 312.727 823.765 312.727Z" fill="white"/>
<path d="M952.577 222.727C951.308 222.727 950.136 223.402 949.498 224.499L925.168 266.364L900.838 224.499C900.201 223.402 899.028 222.727 897.759 222.727H874.12C871.303 222.727 869.601 225.845 871.126 228.215L911.46 290.909V331.931C911.46 334.881 913.852 337.273 916.802 337.273H933.535C936.485 337.273 938.876 334.881 938.876 331.931V290.909L979.211 228.215C980.735 225.845 979.034 222.727 976.216 222.727H952.577Z" fill="white"/>
<g clip-path="url(#clip0_3991_2171)">
<path fill-rule="evenodd" clip-rule="evenodd" d="M221.046 312.017L303.281 208.846L355.221 245.602L357.599 249.389C330.773 261.021 311.991 287.755 311.991 318.842C311.991 360.632 345.913 394.554 387.693 394.554C394.265 394.554 400.643 393.715 406.722 392.128C388.421 402.263 367.381 408 345.006 408C285.414 408 235.279 367.208 221.046 312.017ZM408.931 318.842C426.368 318.842 440.526 333.014 440.526 350.451C440.526 367.888 426.368 382.037 408.931 382.037C391.492 382.037 377.333 367.888 377.333 350.451C377.333 333.014 391.492 318.842 408.931 318.842Z" fill="url(#paint0_linear_3991_2171)"/>
<path fill-rule="evenodd" clip-rule="evenodd" d="M241.387 354.918C226.009 333.921 217 308.004 217 280C217 209.345 274.359 152 345.007 152C380.382 152 412.424 166.376 435.6 189.618L445.214 200.706C448.194 204.152 448.695 209.096 446.468 213.064C444.874 215.898 442.881 219.458 440.711 223.313C428.34 245.376 405.025 259.026 379.74 259.026H335.628C294.054 259.026 257.584 286.757 246.471 326.824C243.913 336.052 242.201 345.44 241.387 354.918Z" fill="url(#paint1_linear_3991_2171)"/>
</g>
<defs>
<linearGradient id="paint0_linear_3991_2171" x1="310.959" y1="201.022" x2="366.109" y2="351.153" gradientUnits="userSpaceOnUse">
<stop stop-color="#B2D4B9" stop-opacity="0"/>
<stop offset="0.979167" stop-color="white"/>
</linearGradient>
<linearGradient id="paint1_linear_3991_2171" x1="333.428" y1="212.256" x2="256.83" y2="-1.19414" gradientUnits="userSpaceOnUse">
<stop stop-color="white"/>
<stop offset="1" stop-color="white" stop-opacity="0"/>
</linearGradient>
<clipPath id="clip0_3991_2171">
<rect width="256" height="256" fill="white" transform="translate(217 152)"/>
</clipPath>
</defs>
</svg>
