<svg width="97" height="109" viewBox="0 0 97 109" fill="none" xmlns="http://www.w3.org/2000/svg">
<path d="M19 31.3431C19 28.4734 21.181 18.8133 24.261 14.3644C26.4132 11.2556 33.8511 2.38549 41.8447 0L43.7043 6.23141C37.0202 8.22612 31.1343 12.2758 26.8824 17.8056C22.6305 23.3353 20.2287 30.064 20.018 37.0362C20.018 37.0362 19 34.2127 19 31.3431Z" fill="#3AAC59"/>
<path fill-rule="evenodd" clip-rule="evenodd" d="M55.5759 36.643C69.873 34.2404 75.8397 25.3723 76.6697 16.198C70.8507 10.2385 62.7277 6.53871 53.7405 6.53871C36.043 6.53871 21.6963 20.8854 21.6963 38.5829C21.6963 54.1099 32.7396 67.0576 47.4004 70C45.2306 69.017 43.2271 67.5736 41.5421 65.6788C39.3774 63.2446 38.014 60.3753 37.4331 57.394C37.4269 57.3927 37.4208 57.3913 37.4146 57.39C37.1438 56.1862 37.001 54.934 37.001 53.6485C37.001 45.0727 43.3589 37.982 51.6182 36.8327C50.4087 35.6475 49.2623 34.2524 48.2994 32.6463C45.7295 28.3598 44.5157 22.6462 46.7667 15.6073C46.1007 15.7746 45.3357 16.0187 44.5018 16.3542C42.668 17.0919 40.5876 18.2374 38.6182 19.8569C35.1221 22.7319 31.9735 27.0967 31.143 33.3948L41.6447 28.0459C42.314 27.7049 43.133 27.9712 43.4739 28.6405C43.8149 29.3099 43.5486 30.1289 42.8793 30.4698L30.2051 36.9253C29.7757 37.144 29.2627 37.1192 28.8564 36.8601C28.4502 36.601 28.2113 36.1463 28.2285 35.6648C28.5314 27.184 32.4627 21.3969 36.8903 17.7559C39.0938 15.9438 41.4195 14.662 43.4866 13.8305C45.5277 13.0093 47.4058 12.5918 48.7186 12.5918C49.4698 12.5918 50.0788 13.2007 50.0788 13.9519C50.0788 13.9919 50.077 14.0314 50.0737 14.0704C50.0921 14.2756 50.064 14.4882 49.9828 14.6927C47.1492 21.8336 48.2706 27.308 50.6325 31.2475C52.0042 33.5355 53.8142 35.3359 55.5759 36.643ZM66.1756 18.2564C66.1756 19.7092 64.9978 20.8869 63.5451 20.8869C62.0923 20.8869 60.9146 19.7092 60.9146 18.2564C60.9146 16.8036 62.0923 15.6259 63.5451 15.6259C64.9978 15.6259 66.1756 16.8036 66.1756 18.2564Z" fill="#3AAC59"/>
<path d="M40.3069 57.7679C40.8783 59.9631 41.964 62.0597 43.5748 63.8711C47.0976 67.8325 52.2683 69.4586 57.1363 68.6351C63.7343 65.976 67.5236 57.0395 68.3278 45.2787C64.4167 48.9831 51.7457 58.3579 40.3069 57.7679Z" fill="#3AAC59"/>
<path d="M24.0391 94.5445C24.0013 94.2989 23.7872 94.1213 23.5387 94.1213H13.2139C11.8165 94.1213 10.6836 95.2542 10.6836 96.6516C10.6836 98.0491 11.8165 99.182 13.2139 99.182H18.2746C17.7826 101.958 15.3928 103.68 12.3705 103.68C8.50471 103.68 5.62295 100.412 5.62295 96.3705C5.62295 92.329 8.43442 89.0607 12.3705 89.0607C14.3288 89.0607 15.6995 89.7412 16.7081 90.6815C17.5913 91.5049 18.7913 92.0205 19.9482 91.675C21.5651 91.1922 22.361 89.3357 21.2591 88.0576C19.11 85.5647 16.0612 84 12.3705 84C5.55266 84 0 89.5527 0 96.3705C0 103.188 5.55266 108.741 12.3705 108.741C19.1883 108.741 24.1787 103.188 24.1787 96.3705C24.1787 95.7129 24.1322 95.1484 24.0391 94.5445Z" fill="#3AAC59"/>
<path d="M39.0778 84C32.0843 84 26.4262 89.5527 26.4262 96.3705C26.4262 103.188 32.0843 108.741 39.0778 108.741C46.0714 108.741 51.7295 103.188 51.7295 96.3705C51.7295 89.5527 46.0714 84 39.0778 84ZM39.0778 103.68C35.2121 103.68 32.0492 100.412 32.0492 96.3705C32.0492 92.329 35.2121 89.0607 39.0778 89.0607C42.9436 89.0607 46.1065 92.329 46.1065 96.3705C46.1065 100.412 42.9436 103.68 39.0778 103.68Z" fill="#3AAC59"/>
<path d="M69.9818 95.773C71.6336 94.9999 72.8284 92.7507 72.8284 90.7475C72.8284 86.3195 69.2438 84.5623 63.8317 84.5623H57.7039C56.1194 84.5623 54.835 85.8467 54.835 87.4311V105.31C54.835 106.894 56.1194 108.179 57.7039 108.179H65.87C70.9307 108.179 73.953 105.156 73.953 101.08C73.953 98.7251 72.723 96.6516 69.9818 95.773ZM60.458 89.6229H63.8317C65.9755 89.6229 67.2055 90.115 67.2055 91.5558C67.2055 92.9264 65.9755 93.559 63.8317 93.559H60.458V89.6229ZM64.394 103.118H60.458V98.6197H64.394C66.7838 98.6197 68.3301 99.2874 68.3301 100.834C68.3301 102.45 66.7838 103.118 64.394 103.118Z" fill="#3AAC59"/>
<path d="M91.2206 84.5623C90.7085 84.5623 90.2351 84.8354 89.9788 85.2788L85.1918 93.559L80.4048 85.2788C80.1484 84.8354 79.6751 84.5623 79.163 84.5623H76.0047C74.8711 84.5623 74.1854 85.8152 74.7965 86.77L82.3803 98.6197V106.027C82.3803 107.215 83.3436 108.179 84.532 108.179H85.8516C87.0399 108.179 88.0033 107.215 88.0033 106.027V98.6197L95.5871 86.77C96.1981 85.8152 95.5125 84.5623 94.3789 84.5623H91.2206Z" fill="#3AAC59"/>
</svg>
