<svg width="100" height="100" viewBox="0 0 100 100" fill="none" xmlns="http://www.w3.org/2000/svg">
<rect width="100" height="100" fill="#3AAC59"/>
<path d="M21 46.3431C21 43.4734 23.181 33.8133 26.261 29.3644C28.4132 26.2556 35.8511 17.3855 43.8447 15L45.7043 21.2314C39.0202 23.2261 33.1343 27.2758 28.8824 32.8056C24.6305 38.3353 22.2287 45.064 22.018 52.0362C22.018 52.0362 21 49.2127 21 46.3431Z" fill="white"/>
<path fill-rule="evenodd" clip-rule="evenodd" d="M57.5759 51.643C71.873 49.2404 77.8397 40.3723 78.6697 31.198C72.8507 25.2385 64.7277 21.5387 55.7405 21.5387C38.043 21.5387 23.6963 35.8854 23.6963 53.5829C23.6963 69.1099 34.7396 82.0576 49.4004 85C47.2306 84.017 45.2271 82.5736 43.5421 80.6788C41.3774 78.2446 40.014 75.3753 39.4331 72.394C39.4269 72.3927 39.4208 72.3913 39.4146 72.39C39.1438 71.1862 39.001 69.934 39.001 68.6485C39.001 60.0727 45.3589 52.982 53.6182 51.8327C52.4087 50.6475 51.2623 49.2524 50.2994 47.6463C47.7295 43.3598 46.5157 37.6462 48.7667 30.6073C48.1007 30.7746 47.3357 31.0187 46.5018 31.3542C44.668 32.0919 42.5876 33.2374 40.6182 34.8569C37.1221 37.7319 33.9735 42.0967 33.143 48.3948L43.6447 43.0459C44.314 42.7049 45.133 42.9712 45.4739 43.6405C45.8149 44.3099 45.5486 45.1289 44.8793 45.4698L32.2051 51.9253C31.7757 52.144 31.2627 52.1192 30.8564 51.8601C30.4502 51.601 30.2113 51.1463 30.2285 50.6648C30.5314 42.184 34.4627 36.3969 38.8903 32.7559C41.0938 30.9438 43.4195 29.662 45.4866 28.8305C47.5277 28.0093 49.4058 27.5918 50.7186 27.5918C51.4698 27.5918 52.0788 28.2007 52.0788 28.9519C52.0788 28.9919 52.077 29.0314 52.0737 29.0704C52.0921 29.2756 52.064 29.4882 51.9828 29.6927C49.1492 36.8336 50.2706 42.308 52.6325 46.2475C54.0042 48.5355 55.8142 50.3359 57.5759 51.643ZM68.1756 33.2564C68.1756 34.7092 66.9978 35.8869 65.5451 35.8869C64.0923 35.8869 62.9146 34.7092 62.9146 33.2564C62.9146 31.8036 64.0923 30.6259 65.5451 30.6259C66.9978 30.6259 68.1756 31.8036 68.1756 33.2564Z" fill="white"/>
<path d="M42.3069 72.7679C42.8783 74.9631 43.964 77.0597 45.5748 78.8711C49.0976 82.8325 54.2683 84.4586 59.1363 83.6351C65.7343 80.976 69.5236 72.0395 70.3278 60.2787C66.4167 63.9831 53.7457 73.3579 42.3069 72.7679Z" fill="white"/>
</svg>
