<svg width="95" height="32" viewBox="0 0 95 32" fill="none" xmlns="http://www.w3.org/2000/svg">
<path d="M2.70142 14.3283C2.70142 13.0164 3.68337 8.60037 5.07011 6.56659C6.03912 5.14544 9.38793 1.09051 12.987 0L13.8242 2.84865C10.8148 3.76051 8.16473 5.61181 6.25036 8.13969C4.336 10.6676 3.25461 13.7435 3.15975 16.9308C3.15975 16.9308 2.70142 15.6401 2.70142 14.3283Z" fill="#3AAC59"/>
<path fill-rule="evenodd" clip-rule="evenodd" d="M19.1692 16.7511C25.6063 15.6527 28.2927 11.5988 28.6664 7.4048C26.0465 4.68044 22.3892 2.98913 18.3429 2.98913C10.3748 2.98913 3.91538 9.54761 3.91538 17.6379C3.91538 24.736 8.8875 30.6549 15.4883 32C14.5114 31.5506 13.6094 30.8908 12.8507 30.0246C11.8761 28.9118 11.2622 27.6001 11.0007 26.2373C10.9979 26.2367 10.9951 26.236 10.9923 26.2354C10.8704 25.6851 10.8061 25.1127 10.8061 24.525C10.8061 20.6047 13.6687 17.3632 17.3873 16.8378C16.8428 16.296 16.3266 15.6583 15.8931 14.924C14.736 12.9645 14.1895 10.3526 15.203 7.13477C14.9032 7.21123 14.5587 7.32283 14.1833 7.47618C13.3576 7.81345 12.4209 8.33708 11.5342 9.07745C9.9602 10.3917 8.54256 12.3871 8.16865 15.2662L12.8969 12.821C13.1982 12.6651 13.567 12.7868 13.7205 13.0928C13.874 13.3988 13.7541 13.7732 13.4527 13.9291L7.74635 16.8801C7.55304 16.9801 7.32206 16.9688 7.13914 16.8503C6.95623 16.7319 6.84868 16.524 6.85643 16.3039C6.9928 12.427 8.76283 9.78144 10.7563 8.11696C11.7484 7.2886 12.7955 6.70264 13.7262 6.32249C14.6451 5.94712 15.4908 5.75625 16.0818 5.75625C16.4201 5.75625 16.6942 6.03462 16.6942 6.37802C16.6942 6.39628 16.6935 6.41434 16.6919 6.43219C16.7002 6.526 16.6876 6.62316 16.651 6.71668C15.3752 9.98106 15.8801 12.4837 16.9435 14.2846C17.5611 15.3305 18.3761 16.1536 19.1692 16.7511ZM23.9416 8.34577C23.9416 9.0099 23.4113 9.54828 22.7572 9.54828C22.1032 9.54828 21.5729 9.0099 21.5729 8.34577C21.5729 7.68164 22.1032 7.14326 22.7572 7.14326C23.4113 7.14326 23.9416 7.68164 23.9416 8.34577Z" fill="#3AAC59"/>
<path d="M12.2946 26.4082C12.5518 27.4117 13.0406 28.3702 13.7659 29.1982C15.352 31.0092 17.68 31.7525 19.8718 31.376C22.8425 30.1605 24.5485 26.0752 24.9106 20.6988C23.1497 22.3923 17.4448 26.6779 12.2946 26.4082Z" fill="#3AAC59"/>
<path d="M49.3083 14.9462C49.2848 14.7917 49.1502 14.6798 48.9939 14.6798H42.5375C41.6468 14.6798 40.9247 15.4019 40.9247 16.2926C40.9247 17.1833 41.6468 17.9054 42.5375 17.9054H45.6901C45.3812 19.675 43.881 20.7726 41.9837 20.7726C39.5569 20.7726 37.7479 18.6894 37.7479 16.1134C37.7479 13.5374 39.5128 11.4542 41.9837 11.4542C43.2097 11.4542 44.0688 11.8856 44.7015 12.4824C45.2597 13.009 46.0229 13.3382 46.7573 13.1155C47.7674 12.8092 48.2666 11.6503 47.5871 10.8426C46.2367 9.23754 44.314 8.22858 41.9837 8.22858C37.7038 8.22858 34.218 11.7678 34.218 16.1134C34.218 20.459 37.7038 23.9982 41.9837 23.9982C46.2637 23.9982 49.3964 20.459 49.3964 16.1134C49.3964 15.6931 49.367 15.3324 49.3083 14.9462Z" fill="#3AAC59"/>
<path d="M58.7495 8.22858C54.3592 8.22858 50.8073 11.7678 50.8073 16.1134C50.8073 20.459 54.3592 23.9982 58.7495 23.9982C63.1398 23.9982 66.6917 20.459 66.6917 16.1134C66.6917 11.7678 63.1398 8.22858 58.7495 8.22858ZM58.7495 20.7726C56.3227 20.7726 54.3372 18.6894 54.3372 16.1134C54.3372 13.5374 56.3227 11.4542 58.7495 11.4542C61.1763 11.4542 63.1618 13.5374 63.1618 16.1134C63.1618 18.6894 61.1763 20.7726 58.7495 20.7726Z" fill="#3AAC59"/>
<path d="M78.1498 15.7326C79.1867 15.2398 79.9367 13.8062 79.9367 12.5294C79.9367 9.70698 77.6865 8.58698 74.289 8.58698H72.6412C70.4321 8.58698 68.6412 10.3778 68.6412 12.587V19.6398C68.6412 21.8489 70.4321 23.6398 72.6412 23.6398H75.5686C78.7454 23.6398 80.6427 21.7134 80.6427 19.115C80.6427 17.6142 79.8706 16.2926 78.1498 15.7326ZM72.1711 11.8126H74.289C75.6347 11.8126 76.4069 12.1262 76.4069 13.0446C76.4069 13.9182 75.6347 14.3214 74.289 14.3214H72.1711V11.8126ZM74.642 20.4142H72.1711V17.547H74.642C76.1422 17.547 77.1129 17.9726 77.1129 18.9582C77.1129 19.9886 76.1422 20.4142 74.642 20.4142Z" fill="#3AAC59"/>
<path d="M91.9704 8.58698C91.3476 8.58698 90.7728 8.92116 90.4647 9.46231L87.698 14.3214L84.9312 9.46231C84.6231 8.92116 84.0483 8.58698 83.4255 8.58698C82.0617 8.58698 81.2325 10.0898 81.9598 11.2436L85.933 17.547V21.8749C85.933 22.8496 86.7232 23.6398 87.698 23.6398C88.6727 23.6398 89.4629 22.8496 89.4629 21.8748V17.547L93.4361 11.2436C94.1634 10.0898 93.3342 8.58698 91.9704 8.58698Z" fill="#3AAC59"/>
</svg>
