<svg width="70" height="70" viewBox="0 0 70 70" fill="none" xmlns="http://www.w3.org/2000/svg">
<path d="M10 31.761C10 29.2193 11.8909 20.6632 14.5613 16.7228C16.4273 13.9693 22.876 6.11286 29.8065 4L31.4188 9.51925C25.6236 11.286 20.5205 14.8729 16.8341 19.7706C13.1477 24.6684 11.0653 30.6281 10.8826 36.8035C10.8826 36.8035 10 34.3027 10 31.761Z" fill="#3AAC59"/>
<path fill-rule="evenodd" clip-rule="evenodd" d="M41.7115 36.4553C54.1072 34.3272 59.2804 26.4726 60 18.3468C54.9549 13.0684 47.9122 9.79143 40.1202 9.79143C24.7764 9.79143 12.3377 22.4985 12.3377 38.1734C12.3377 51.9259 21.9123 63.3939 34.6233 66C32.7422 65.1293 31.0051 63.8509 29.5441 62.1727C27.6673 60.0167 26.4853 57.4753 25.9816 54.8347C25.9763 54.8335 25.9709 54.8323 25.9656 54.8312C25.7308 53.7649 25.607 52.6559 25.607 51.5172C25.607 43.9216 31.1193 37.6412 38.2802 36.6233C37.2315 35.5735 36.2376 34.3379 35.4028 32.9153C33.1746 29.1187 32.1223 24.0581 34.0739 17.8236C33.4965 17.9718 32.8332 18.188 32.1103 18.4851C30.5203 19.1386 28.7166 20.1531 27.0091 21.5876C23.978 24.134 21.2481 27.9999 20.5281 33.5782L29.6331 28.8406C30.2134 28.5387 30.9235 28.7745 31.2191 29.3673C31.5147 29.9602 31.2838 30.6856 30.7035 30.9876L19.7149 36.7052C19.3426 36.8989 18.8978 36.877 18.5456 36.6475C18.1934 36.418 17.9863 36.0153 18.0012 35.5888C18.2638 28.0773 21.6723 22.9515 25.5111 19.7266C27.4215 18.1217 29.4379 16.9864 31.23 16.2498C32.9997 15.5225 34.6281 15.1527 35.7663 15.1527C36.4175 15.1527 36.9455 15.6921 36.9455 16.3574C36.9455 16.3928 36.944 16.4278 36.9411 16.4624C36.9571 16.6441 36.9327 16.8324 36.8623 17.0136C34.4055 23.3383 35.3778 28.1871 37.4256 31.6764C38.6149 33.7029 40.1841 35.2975 41.7115 36.4553ZM50.9015 20.1699C50.9015 21.4567 49.8804 22.4998 48.6209 22.4998C47.3613 22.4998 46.3402 21.4567 46.3402 20.1699C46.3402 18.8832 47.3613 17.8401 48.6209 17.8401C49.8804 17.8401 50.9015 18.8832 50.9015 20.1699Z" fill="#3AAC59"/>
<path d="M28.4733 55.1658C28.9687 57.1102 29.9099 58.9672 31.3066 60.5716C34.3608 64.0802 38.8438 65.5205 43.0644 64.7911C48.785 62.4359 52.0703 54.5207 52.7675 44.104C49.3766 47.385 38.3908 55.6884 28.4733 55.1658Z" fill="#3AAC59"/>
</svg>
