<svg width="1200" height="560" viewBox="0 0 1200 560" fill="none" xmlns="http://www.w3.org/2000/svg">
<path fill-rule="evenodd" clip-rule="evenodd" d="M219.189 312.643L304.315 205.844L358.08 243.893L360.542 247.813C332.773 259.854 313.331 287.527 313.331 319.708C313.331 362.967 348.445 398.081 391.695 398.081C398.497 398.081 405.1 397.213 411.392 395.57C392.448 406.062 370.668 412 347.506 412C285.819 412 233.922 369.774 219.189 312.643ZM413.679 319.708C431.729 319.708 446.384 334.378 446.384 352.428C446.384 370.478 431.729 385.125 413.679 385.125C395.626 385.125 380.97 370.478 380.97 352.428C380.97 334.378 395.626 319.708 413.679 319.708Z" fill="url(#paint0_linear_3991_2151)"/>
<path fill-rule="evenodd" clip-rule="evenodd" d="M240.244 357.052C224.325 335.317 215 308.488 215 279.5C215 206.361 274.375 147 347.507 147C384.126 147 417.294 161.881 441.285 185.94L451.237 197.418C454.322 200.986 454.84 206.103 452.535 210.21C450.885 213.144 448.822 216.83 446.576 220.82C433.769 243.658 409.635 257.788 383.462 257.788H337.799C294.763 257.788 257.01 286.495 245.507 327.97C242.859 337.523 241.087 347.241 240.244 357.052Z" fill="#5FD04F"/>
<path d="M629.688 280C629.688 273.644 624.042 269.091 617.686 269.091H576.163C569.385 269.091 563.89 274.586 563.89 281.364V281.364C563.89 288.142 569.385 293.636 576.163 293.636H600.901C598.502 307.102 586.851 315.455 572.115 315.455C553.266 315.455 539.216 299.602 539.216 280C539.216 260.398 552.924 244.545 572.115 244.545C581.672 244.545 588.359 247.852 593.278 252.42C597.573 256.409 603.398 258.908 609.017 257.239V257.239C616.913 254.893 620.794 245.824 615.39 239.608C604.915 227.559 590.073 220 572.115 220C538.873 220 511.8 246.932 511.8 280C511.8 313.068 538.873 340 572.115 340C605.356 340 629.688 313.068 629.688 280V280Z" fill="#44A536"/>
<path d="M702.331 220C668.233 220 640.646 246.932 640.646 280C640.646 313.068 668.233 340 702.331 340C736.43 340 764.017 313.068 764.017 280C764.017 246.932 736.43 220 702.331 220ZM702.331 315.455C683.483 315.455 668.062 299.602 668.062 280C668.062 260.398 683.483 244.545 702.331 244.545C721.18 244.545 736.601 260.398 736.601 280C736.601 299.602 721.18 315.455 702.331 315.455Z" fill="#44A536"/>
<path d="M853.009 277.102C861.063 273.352 866.888 262.443 866.888 252.727C866.888 231.25 849.411 222.727 823.023 222.727H786.28C782.347 222.727 779.158 225.916 779.158 229.849V330.151C779.158 334.084 782.347 337.273 786.28 337.273H832.961C857.636 337.273 872.372 322.614 872.372 302.841C872.372 291.42 866.374 281.364 853.009 277.102ZM806.574 247.273H823.023C833.476 247.273 839.473 249.659 839.473 256.648C839.473 263.295 833.476 266.364 823.023 266.364H806.574V247.273ZM825.765 312.727H806.574V290.909H825.765C837.417 290.909 844.956 294.148 844.956 301.648C844.956 309.489 837.417 312.727 825.765 312.727Z" fill="#44A536"/>
<path d="M954.577 222.727C953.308 222.727 952.136 223.402 951.498 224.499L927.168 266.364L902.838 224.499C902.201 223.402 901.028 222.727 899.759 222.727H876.12C873.303 222.727 871.601 225.845 873.126 228.215L913.46 290.909V331.931C913.46 334.881 915.852 337.273 918.802 337.273H935.535C938.485 337.273 940.876 334.881 940.876 331.931V290.909L981.211 228.215C982.735 225.845 981.034 222.727 978.216 222.727H954.577Z" fill="#44A536"/>
<defs>
<linearGradient id="paint0_linear_3991_2151" x1="273.146" y1="281.264" x2="295.347" y2="309.809" gradientUnits="userSpaceOnUse">
<stop stop-color="#469F39"/>
<stop offset="1" stop-color="#4AB93A"/>
</linearGradient>
</defs>
</svg>
