<svg width="100" height="100" viewBox="0 0 100 100" fill="none" xmlns="http://www.w3.org/2000/svg">
<rect width="100" height="100" fill="#3AAC59"/>
<path d="M29.7319 34.6512C29.7319 32.7283 31.1934 26.255 33.2573 23.2738C34.6996 21.1906 39.6837 15.2467 45.0403 13.6481L46.2864 17.8238C41.8073 19.1605 37.8632 21.8742 35.014 25.5797C32.1647 29.2852 30.5553 33.7941 30.4141 38.4663C30.4141 38.4663 29.7319 36.5742 29.7319 34.6512Z" fill="white"/>
<path fill-rule="evenodd" clip-rule="evenodd" d="M54.2416 38.2028C63.8221 36.5927 67.8204 30.6502 68.3766 24.5025C64.4773 20.509 59.034 18.0297 53.0117 18.0297C41.1525 18.0297 31.5387 27.6435 31.5387 39.5027C31.5387 49.9074 38.9389 58.5837 48.7631 60.5554C47.3092 59.8967 45.9666 58.9295 44.8375 57.6598C43.3869 56.0286 42.4733 54.1059 42.084 52.1081C42.0799 52.1072 42.0758 52.1063 42.0716 52.1054C41.8902 51.2987 41.7945 50.4596 41.7945 49.5982C41.7945 43.8516 46.0549 39.1 51.5895 38.3299C50.779 37.5356 50.0108 36.6008 49.3656 35.5245C47.6435 32.6521 46.8301 28.8235 48.3385 24.1066C47.8922 24.2187 47.3796 24.3823 46.8208 24.6071C45.5919 25.1015 44.1979 25.8691 42.8781 26.9543C40.5354 28.8809 38.4255 31.8057 37.869 36.0261L44.9062 32.4418C45.3547 32.2133 45.9036 32.3917 46.132 32.8403C46.3605 33.2888 46.1821 33.8376 45.7335 34.0661L37.2405 38.3919C36.9528 38.5385 36.609 38.5218 36.3368 38.3482C36.0645 38.1746 35.9045 37.8699 35.916 37.5472C36.1189 31.8642 38.7534 27.9863 41.7203 25.5464C43.1969 24.3321 44.7554 23.4732 46.1405 22.916C47.5082 22.3657 48.7668 22.0859 49.6465 22.0859C50.1499 22.0859 50.5579 22.494 50.5579 22.9974C50.5579 23.0241 50.5568 23.0506 50.5545 23.0768C50.5669 23.2143 50.5481 23.3567 50.4937 23.4938C48.5948 28.2789 49.3463 31.9473 50.929 34.5872C51.8482 36.1204 53.0611 37.3269 54.2416 38.2028ZM61.3445 25.8818C61.3445 26.8553 60.5553 27.6445 59.5817 27.6445C58.6082 27.6445 57.819 26.8553 57.819 25.8818C57.819 24.9083 58.6082 24.1191 59.5817 24.1191C60.5553 24.1191 61.3445 24.9083 61.3445 25.8818Z" fill="white"/>
<path d="M44.0098 52.3586C44.3927 53.8296 45.1202 55.2346 46.1996 56.4484C48.5603 59.103 52.0251 60.1926 55.2872 59.6408C59.7086 57.8589 62.2478 51.8705 62.7867 43.9896C60.1658 46.4719 51.675 52.754 44.0098 52.3586Z" fill="white"/>
<path d="M33.1087 77.0027C33.0834 76.8381 32.9399 76.7192 32.7734 76.7192H25.8547C24.9183 76.7192 24.1591 77.4783 24.1591 78.4147V78.4147C24.1591 79.3512 24.9183 80.1103 25.8547 80.1103H29.2459C28.9162 81.9707 27.3148 83.1247 25.2895 83.1247C22.699 83.1247 20.768 80.9346 20.768 78.2263C20.768 75.5181 22.6519 73.328 25.2895 73.328C26.6018 73.328 27.5203 73.784 28.1962 74.4141C28.788 74.9659 29.5921 75.3114 30.3674 75.0799V75.0799C31.4508 74.7563 31.9842 73.5123 31.2458 72.6559C29.8057 70.9854 27.7627 69.9368 25.2895 69.9368C20.7209 69.9368 17 73.6577 17 78.2263C17 82.795 20.7209 86.5158 25.2895 86.5158C29.8582 86.5158 33.2022 82.795 33.2022 78.2263C33.2022 77.7857 33.1711 77.4074 33.1087 77.0027Z" fill="white"/>
<path d="M43.1862 69.9368C38.4998 69.9368 34.7083 73.6577 34.7083 78.2263C34.7083 82.795 38.4998 86.5158 43.1862 86.5158C47.8726 86.5158 51.6641 82.795 51.6641 78.2263C51.6641 73.6577 47.8726 69.9368 43.1862 69.9368ZM43.1862 83.1247C40.5957 83.1247 38.4763 80.9346 38.4763 78.2263C38.4763 75.5181 40.5957 73.328 43.1862 73.328C45.7767 73.328 47.8962 75.5181 47.8962 78.2263C47.8962 80.9346 45.7767 83.1247 43.1862 83.1247Z" fill="white"/>
<path d="M63.8951 77.826C65.0019 77.3079 65.8026 75.8007 65.8026 74.4584C65.8026 71.4911 63.4005 70.3136 59.7739 70.3136H55.6676C54.6059 70.3136 53.7451 71.1743 53.7451 72.2361V84.2166C53.7451 85.2784 54.6059 86.1391 55.6676 86.1391H61.1398C64.5309 86.1391 66.5562 84.1138 66.5562 81.382C66.5562 79.8042 65.732 78.4147 63.8951 77.826ZM57.5131 73.7048H59.7739C61.2104 73.7048 62.0347 74.0345 62.0347 75C62.0347 75.9185 61.2104 76.3424 59.7739 76.3424H57.5131V73.7048ZM60.1507 82.7479H57.5131V79.7335H60.1507C61.7521 79.7335 62.7883 80.181 62.7883 81.2172C62.7883 82.3004 61.7521 82.7479 60.1507 82.7479Z" fill="white"/>
<path d="M78.1273 70.3136C77.7841 70.3136 77.4669 70.4966 77.2951 70.7937L74.0873 76.3424L70.8796 70.7937C70.7078 70.4966 70.3906 70.3136 70.0474 70.3136H67.931C67.1714 70.3136 66.712 71.1532 67.1214 71.793L72.2034 79.7335V84.6972C72.2034 85.4935 72.8489 86.1391 73.6452 86.1391H74.5295C75.3258 86.1391 75.9713 85.4935 75.9713 84.6972V79.7335L81.0533 71.793C81.4627 71.1532 81.0033 70.3136 80.2437 70.3136H78.1273Z" fill="white"/>
</svg>
